<?xml version="1.0" encoding="utf-8"?>
<!-- Generator: Adobe Illustrator 24.3.0, SVG Export Plug-In . SVG Version: 6.00 Build 0)  -->
<svg version="1.1" id="Layer_1" xmlns="http://www.w3.org/2000/svg" xmlns:xlink="http://www.w3.org/1999/xlink" x="0px" y="0px"
	 viewBox="0 0 350 350" enable-background="new 0 0 350 350" xml:space="preserve">
<g>
	<path fill="#2AA9E1" d="M314.103,144.513L178.582,91.369c-1.356-0.532-2.856-0.532-4.213-0.013L35.937,144.497
		c-2.242,0.863-3.727,3.011-3.736,5.419c-0.009,2.402,1.459,4.563,3.698,5.44l13.179,5.168v20.795
		c-3.873,2.084-6.535,6.13-6.535,10.836c0,3.415,1.384,6.507,3.622,8.741v31.229c0,4.826,3.912,8.737,8.735,8.737
		c4.828,0,8.735-3.911,8.735-8.737v-31.229c2.242-2.234,3.627-5.326,3.627-8.741c0-4.706-2.664-8.752-6.537-10.836v-16.229
		l33.672,13.202c0,0.078-0.021,0.148-0.021,0.224c0.06,44.397,36.227,80.515,80.625,80.515c44.456,0,80.628-36.167,80.628-80.624
		v-0.449c0-0.052-0.015-0.097-0.015-0.147l58.449-22.439c2.245-0.862,3.728-3.014,3.736-5.418
		C317.807,147.551,316.342,145.39,314.103,144.513z M175,247.384c-36.497,0-66.476-28.534-68.815-64.466l65.235,25.58
		c0.683,0.268,1.406,0.401,2.125,0.401c0.706,0,1.412-0.128,2.086-0.387l68.228-26.191C241.824,218.539,211.723,247.384,175,247.384
		z M173.566,196.829L57.171,151.189c0,0-0.002,0-0.002-0.002l-3.047-1.192l122.313-46.953l119.442,46.834L173.566,196.829z"/>
</g>
</svg>
